<svg width="1080" height="1350" viewBox="0 0 1080 1350" fill="none" xmlns="http://www.w3.org/2000/svg">
  <defs>
    <linearGradient id="jacketLeft" x1="176" y1="466" x2="430" y2="1312" gradientUnits="userSpaceOnUse">
      <stop stop-color="#243449"/>
      <stop offset="1" stop-color="#0D1624"/>
    </linearGradient>
    <linearGradient id="jacketRight" x1="904" y1="466" x2="650" y2="1312" gradientUnits="userSpaceOnUse">
      <stop stop-color="#243449"/>
      <stop offset="1" stop-color="#0D1624"/>
    </linearGradient>
    <linearGradient id="shirt" x1="540" y1="472" x2="540" y2="1342" gradientUnits="userSpaceOnUse">
      <stop stop-color="#F8FBFF"/>
      <stop offset="1" stop-color="#DCE5F1"/>
    </linearGradient>
    <linearGradient id="tie" x1="540" y1="538" x2="540" y2="1248" gradientUnits="userSpaceOnUse">
      <stop stop-color="#1A1A1D"/>
      <stop offset="1" stop-color="#060607"/>
    </linearGradient>
    <radialGradient id="shoulderShade" cx="0" cy="0" r="1" gradientUnits="userSpaceOnUse" gradientTransform="translate(540 678) rotate(90) scale(632 548)">
      <stop offset="0.48" stop-color="#000000" stop-opacity="0"/>
      <stop offset="1" stop-color="#000000" stop-opacity="0.24"/>
    </radialGradient>
  </defs>

  <path d="M0 690C66 592 156 528 282 494C360 474 442 468 520 472V1350H0V690Z" fill="url(#jacketLeft)"/>
  <path d="M1080 690C1014 592 924 528 798 494C720 474 638 468 560 472V1350H1080V690Z" fill="url(#jacketRight)"/>

  <path d="M378 522C428 490 478 474 540 474C602 474 652 490 702 522L626 1350H454L378 522Z" fill="url(#shirt)"/>
  <path d="M420 548C454 502 492 480 540 480C588 480 626 502 660 548L602 690H478L420 548Z" fill="#FDFEFF"/>

  <path d="M540 544L598 626L540 708L482 626L540 544Z" fill="url(#tie)"/>
  <path d="M500 706H580L618 1238H462L500 706Z" fill="url(#tie)"/>
  <path d="M510 706H570L596 1160H484L510 706Z" fill="#141418" fill-opacity="0.34"/>

  <path d="M280 494L498 694L378 840L174 648C170 616 178 586 198 562C220 536 248 514 280 494Z" fill="#111C2D" fill-opacity="0.42"/>
  <path d="M800 494L582 694L702 840L906 648C910 616 902 586 882 562C860 536 832 514 800 494Z" fill="#111C2D" fill-opacity="0.42"/>

  <path d="M0 0H1080V1350H0V0Z" fill="url(#shoulderShade)"/>
</svg>
